<?xml version="1.0" standalone="no"?>
<!DOCTYPE svg PUBLIC "-//W3C//DTD SVG 20010904//EN"
 "http://www.w3.org/TR/2001/REC-SVG-20010904/DTD/svg10.dtd">
<svg version="1.0" xmlns="http://www.w3.org/2000/svg"
 width="500.000000pt" height="500.000000pt" viewBox="0 0 500.000000 500.000000"
 preserveAspectRatio="xMidYMid meet">

<g transform="translate(0.000000,500.000000) scale(0.100000,-0.100000)"
fill="#000000" stroke="none">
<path d="M2383 2921 c-30 -14 -48 -31 -63 -62 -75 -146 117 -281 228 -160 17
19 32 39 32 43 0 16 -52 8 -77 -12 -16 -12 -41 -20 -64 -20 -92 0 -110 137
-21 168 23 8 38 5 78 -14 56 -27 74 -30 74 -11 0 32 -81 87 -127 87 -10 0 -37
-9 -60 -19z"/>
<path d="M1310 2795 l0 -135 80 0 c79 0 80 0 80 25 0 23 -3 25 -50 25 -49 0
-50 1 -50 30 0 29 2 30 45 30 41 0 45 2 45 25 0 23 -4 25 -45 25 -43 0 -45 1
-45 30 0 29 1 30 50 30 47 0 50 2 50 25 0 25 -1 25 -80 25 l-80 0 0 -135z"/>
<path d="M1610 2795 l0 -135 69 0 c65 0 72 2 101 32 55 54 63 103 29 169 -25
49 -66 69 -144 69 l-55 0 0 -135z m134 60 c54 -50 19 -145 -54 -145 l-30 0 0
85 0 85 29 0 c16 0 39 -10 55 -25z"/>
<path d="M1950 2835 c0 -123 14 -160 67 -174 47 -13 49 -13 94 -1 52 15 69 57
69 175 l0 95 -30 0 -30 0 0 -91 c0 -108 -9 -129 -53 -129 -51 0 -57 13 -57
122 l0 98 -30 0 -30 0 0 -95z"/>
<path d="M2778 2888 c-9 -24 -30 -74 -46 -113 -48 -116 -48 -115 -13 -115 24
0 32 5 37 25 6 23 11 25 65 25 54 0 59 -2 65 -25 5 -21 12 -25 40 -25 l34 0
-18 38 c-10 20 -36 81 -57 135 -35 89 -40 97 -64 97 -22 0 -30 -7 -43 -42z
m66 -81 l14 -47 -39 0 c-21 0 -39 2 -39 4 0 12 41 98 45 94 3 -2 11 -26 19
-51z"/>
<path d="M3080 2795 l0 -135 25 0 c23 0 25 4 25 45 0 25 3 45 8 45 4 0 19 -21
34 -45 24 -40 31 -45 64 -45 40 0 41 -4 -13 63 l-23 29 30 28 c39 37 41 89 5
125 -21 22 -33 25 -90 25 l-65 0 0 -135z m123 73 c18 -28 -7 -68 -43 -68 -29
0 -30 2 -30 46 0 45 0 45 31 42 18 -2 37 -11 42 -20z"/>
<path d="M3390 2795 l0 -135 80 0 c79 0 80 0 80 25 0 23 -3 25 -50 25 -49 0
-50 1 -50 30 0 29 2 30 45 30 41 0 45 2 45 25 0 23 -4 25 -45 25 -43 0 -45 1
-45 29 0 28 2 30 48 33 40 3 47 6 50 26 3 21 1 22 -77 22 l-81 0 0 -135z"/>
<path d="M2304 2325 c0 -49 1 -71 3 -48 2 23 2 64 0 90 -2 26 -3 8 -3 -42z"/>
<path d="M3124 2325 c0 -49 1 -71 3 -48 2 23 2 64 0 90 -2 26 -3 8 -3 -42z"/>
<path d="M3532 2373 c-1 -19 -7 -33 -14 -33 -10 0 -10 -2 -1 -8 6 -4 13 -28
16 -52 l4 -45 1 47 c2 35 6 48 20 51 15 4 15 5 0 6 -11 1 -18 12 -21 34 l-4
32 -1 -32z"/>
<path d="M790 2316 l0 -76 29 0 c46 0 61 10 61 39 0 15 -3 31 -7 35 -5 4 -8
22 -8 39 0 30 -3 32 -37 35 l-38 3 0 -75z m65 39 c0 -14 -8 -21 -27 -23 -24
-3 -28 0 -28 23 0 23 4 26 28 23 19 -2 27 -9 27 -23z m-1 -48 c29 -21 16 -51
-22 -55 -31 -3 -32 -2 -32 32 0 40 20 48 54 23z"/>
<path d="M1741 2363 c0 -12 -7 -24 -13 -26 -10 -4 -10 -6 0 -6 7 -1 13 -19 14
-48 1 -47 1 -47 5 -8 2 22 11 46 20 53 15 11 15 12 1 12 -9 0 -19 10 -21 23
-4 22 -4 22 -6 0z"/>
<path d="M3411 2358 c-1 -10 -9 -18 -18 -18 -16 0 -16 -1 0 -12 9 -7 18 -31
20 -53 4 -39 4 -39 5 8 1 30 7 47 15 47 8 0 9 3 1 8 -6 4 -14 14 -17 22 -4 12
-6 11 -6 -2z"/>
<path d="M963 2290 c0 -30 2 -43 4 -27 2 15 2 39 0 55 -2 15 -4 2 -4 -28z"/>
<path d="M1064 2315 c-14 -21 -15 -31 -5 -51 10 -22 17 -26 46 -22 28 3 35 1
35 -14 0 -9 -9 -22 -19 -28 -21 -10 -51 -4 -51 11 0 5 -5 9 -12 9 -7 0 -3 -10
10 -22 18 -18 26 -20 49 -12 27 9 28 12 31 84 1 46 -1 70 -7 61 -6 -9 -11 -10
-15 -2 -12 19 -45 12 -62 -14z m57 5 c21 -12 25 -40 7 -58 -34 -34 -79 7 -52
46 17 25 19 26 45 12z"/>
<path d="M1245 2320 c-15 -16 -17 -26 -9 -48 8 -23 15 -27 47 -27 28 0 37 -4
37 -17 0 -10 -9 -22 -21 -28 -16 -9 -26 -8 -47 6 l-27 17 19 -21 c23 -26 49
-28 70 -6 11 11 16 35 16 82 0 41 -4 62 -9 53 -6 -9 -11 -10 -15 -2 -11 17
-41 13 -61 -9z m56 0 c21 -12 25 -40 7 -58 -18 -18 -46 -14 -58 9 -9 16 -8 25
6 40 20 22 20 22 45 9z"/>
<path d="M1426 2324 c-19 -18 -21 -55 -4 -72 14 -14 64 -16 73 -2 4 6 -5 7
-23 4 -19 -4 -32 -1 -41 10 -12 14 -8 16 33 16 50 0 60 15 30 44 -20 20 -48
20 -68 0z m60 -11 c17 -17 17 -18 -4 -21 -12 -2 -32 -2 -44 0 -21 3 -21 4 -4
21 10 9 21 17 26 17 5 0 16 -8 26 -17z"/>
<path d="M1589 2324 c-11 -14 -10 -18 6 -30 10 -8 25 -14 33 -14 9 0 13 -7 9
-20 -3 -11 -1 -20 4 -20 21 0 7 40 -18 52 -33 16 -31 34 3 31 13 -1 22 2 19 8
-10 14 -41 11 -56 -7z"/>
<path d="M1965 2317 c-13 -20 -14 -29 -4 -51 10 -22 18 -26 42 -24 39 4 54 28
41 65 -13 38 -56 44 -79 10z m65 -1 c6 -8 10 -25 8 -38 -4 -30 -46 -38 -65
-12 -17 23 -16 29 3 48 19 20 38 20 54 2z"/>
<path d="M2130 2289 c0 -27 5 -49 10 -49 6 0 10 18 10 40 0 22 5 41 10 42 31
4 35 0 41 -42 l7 -45 -2 50 -1 50 -37 2 -38 1 0 -49z"/>
<path d="M2403 2290 c0 -30 2 -43 4 -27 2 15 2 39 0 55 -2 15 -4 2 -4 -28z"/>
<path d="M2490 2289 c0 -27 5 -49 10 -49 6 0 10 15 10 34 0 35 21 63 40 51 5
-3 10 -24 10 -46 0 -21 5 -39 10 -39 13 0 13 60 0 80 -5 8 -25 15 -45 16 l-35
1 0 -48z"/>
<path d="M2664 2315 c-24 -37 -6 -75 35 -75 16 0 33 5 36 10 4 7 -2 9 -19 4
-31 -7 -56 9 -51 34 2 9 4 20 4 23 2 14 33 19 52 9 28 -16 23 -28 -13 -33 -32
-4 -32 -4 5 -5 31 -2 37 1 37 18 0 20 -27 40 -54 40 -9 0 -23 -11 -32 -25z"/>
<path d="M2942 2259 c1 -46 3 -67 5 -47 4 35 5 36 38 31 27 -4 35 -1 44 16 17
30 3 70 -26 77 -14 4 -29 1 -36 -6 -9 -10 -7 -11 9 -6 14 4 28 1 38 -10 20
-20 17 -43 -6 -58 -27 -16 -53 4 -53 42 -1 17 -4 34 -8 38 -4 4 -6 -31 -5 -77z"/>
<path d="M3226 2324 c-20 -19 -21 -58 -2 -73 7 -6 30 -10 50 -9 36 3 36 3 36
48 0 44 -1 45 -34 47 -21 2 -41 -3 -50 -13z m48 0 c22 -8 21 -63 0 -71 -39
-15 -71 40 -38 64 21 15 18 15 38 7z"/>
<path d="M3652 2328 c-7 -7 -12 -24 -12 -38 0 -31 17 -50 45 -50 28 0 45 19
45 50 0 31 -17 50 -45 50 -12 0 -26 -5 -33 -12z m58 -12 c6 -8 10 -25 8 -38
-2 -18 -9 -23 -33 -23 -24 0 -31 5 -33 23 -4 25 13 52 33 52 7 0 18 -7 25 -14z"/>
<path d="M3820 2290 c0 -29 2 -51 4 -49 8 8 10 88 3 95 -4 4 -7 -17 -7 -46z"/>
<path d="M3840 2330 c0 -5 5 -10 10 -10 6 0 10 5 10 10 0 6 -4 10 -10 10 -5 0
-10 -4 -10 -10z"/>
<path d="M3931 2285 l1 -50 11 45 c9 34 17 45 32 45 16 0 21 -9 26 -45 6 -43
6 -43 7 -9 2 38 26 69 42 53 5 -5 10 -27 13 -49 4 -39 4 -39 5 8 2 52 -12 66
-47 48 -12 -7 -22 -7 -26 -1 -3 5 -19 8 -35 7 -29 -2 -30 -4 -29 -52z"/>
<path d="M1580 2256 c0 -3 9 -10 20 -16 11 -6 20 -8 20 -6 0 3 -9 10 -20 16
-11 6 -20 8 -20 6z"/>
</g>
</svg>
